<svg width="18" height="18" viewBox="0 0 18 18" xmlns="http://www.w3.org/2000/svg">
    <path d="M14.19 6.00799C14.04 5.56549 13.62 5.25049 13.125 5.25049H11.25V3.75049H6.75V5.25049H4.875C4.38 5.25049 3.9675 5.56549 3.81 6.00799L2.25 10.5005V16.5005C2.25 16.913 2.5875 17.2505 3 17.2505H3.75C4.1625 17.2505 4.5 16.913 4.5 16.5005V15.7505H13.5V16.5005C13.5 16.913 13.8375 17.2505 14.25 17.2505H15C15.4125 17.2505 15.75 16.913 15.75 16.5005V10.5005L14.19 6.00799ZM5.1375 6.75049H12.855L13.635 9.00049H4.3575L5.1375 6.75049ZM14.25 14.2505H3.75V10.7555L3.84 10.5005H14.1675L14.25 10.7555V14.2505Z" fill="currentColor"/>
    <path d="M5.625 13.5C6.24632 13.5 6.75 12.9963 6.75 12.375C6.75 11.7537 6.24632 11.25 5.625 11.25C5.00368 11.25 4.5 11.7537 4.5 12.375C4.5 12.9963 5.00368 13.5 5.625 13.5Z" fill="currentColor"/>
    <path d="M12.375 13.5C12.9963 13.5 13.5 12.9963 13.5 12.375C13.5 11.7537 12.9963 11.25 12.375 11.25C11.7537 11.25 11.25 11.7537 11.25 12.375C11.25 12.9963 11.7537 13.5 12.375 13.5Z" fill="currentColor"/>
    <path d="M9 2.87158L8.99996 0.750218" stroke="currentColor" stroke-width="1.5"/>
    <path d="M11.25 3.31104L12.75 1.81097" stroke="currentColor" stroke-width="1.5"/>
    <path d="M6.75 3.31104L5.25 1.81097" stroke="currentColor" stroke-width="1.5"/>
</svg>
