<svg width="18" height="18" viewBox="0 0 18 18" xmlns="http://www.w3.org/2000/svg">
    <path d="M14.61 9.26261C13.4325 6.20261 9.24 6.03761 10.2525 1.59011C10.3275 1.26011 9.975 1.00511 9.69 1.17761C6.9675 2.78261 5.01 6.00011 6.6525 10.2151C6.7875 10.5601 6.3825 10.8826 6.09 10.6576C4.7325 9.63011 4.59 8.15261 4.71 7.09511C4.755 6.70511 4.245 6.51761 4.0275 6.84011C3.5175 7.62011 3 8.88011 3 10.7776C3.285 14.9776 6.8325 16.2676 8.1075 16.4326C9.93 16.6651 11.9025 16.3276 13.32 15.0301C14.88 13.5826 15.45 11.2726 14.61 9.26261ZM7.65 13.0351C8.73 12.7726 9.285 11.9926 9.435 11.3026C9.6825 10.2301 8.715 9.1801 9.3675 7.4851C9.615 8.8876 11.82 9.76511 11.82 11.2951C11.88 13.1926 9.825 14.8201 7.65 13.0351Z" fill="currentColr"/>
</svg>
