<svg width="18" height="18" viewBox="0 0 18 18" fill="none" xmlns="http://www.w3.org/2000/svg">
    <rect x="3" y="13.4" width="12" height="4" rx="1" stroke="currentColor" stroke-width="1.3" />
    <path d="M6.53549 6.95659C6.55738 6.78144 6.70627 6.65 6.88278 6.65H11.1172C11.2937 6.65 11.4426 6.78144 11.4645 6.95659L12.2145 12.9566C12.2406 13.1655 12.0777 13.35 11.8672 13.35H6.13278C5.92226 13.35 5.75937 13.1655 5.78548 12.9566L6.53549 6.95659Z" stroke="currentColor" stroke-width="1.3"/>
    <rect x="8.6751" y="1.325" width="0.65" height="2.35" fill="currentColor" stroke="currentColor" stroke-width="0.65"/>
    <rect x="3.45962" y="3.70703" width="0.65" height="2.35" transform="rotate(-45 3.45962 3.70703)" fill="currentColor" stroke="currentColor" stroke-width="0.65"/>
    <rect x="1.325" y="9.675" width="0.65" height="2.35" transform="rotate(-90 1.325 9.675)" fill="currentColor" stroke="currentColor" stroke-width="0.65"/>
    <rect x="14.325" y="9.675" width="0.65" height="2.35" transform="rotate(-90 14.325 9.675)" fill="currentColor" stroke="currentColor" stroke-width="0.65"/>
    <rect x="-0.459619" width="0.65" height="2.35" transform="matrix(-0.707107 -0.707107 -0.707107 0.707107 14.2154 3.38203)" fill="currentColor" stroke="currentColor" stroke-width="0.65"/>
</svg>
