<svg width="24" height="24" viewBox="0 0 16 16" fill="none" xmlns="http://www.w3.org/2000/svg">
	<g transform="scale(0.8)" style="transform-origin: center">
		<path fill-rule="evenodd" clip-rule="evenodd" d="M5.95615 11.0438C6.28134 11.369 6.80841 11.3693 7.13391 11.0446L7.13413 11.0444L7.13467 11.0438L10.9059 7.27261L12.3201 5.8584C13.1663 5.01226 13.1663 3.64041 12.3201 2.79427C11.474 1.94813 10.1021 1.94813 9.25599 2.79427L4.07054 7.97972C4.07028 7.97998 4.07002 7.98024 4.06976 7.98049C2.7037 9.34739 2.70396 11.5629 4.07054 12.9295C5.43737 14.2963 7.65345 14.2963 9.02028 12.9295L13.2629 8.68683C13.4582 8.49156 13.7748 8.49156 13.97 8.68683C14.1653 8.88209 14.1653 9.19867 13.97 9.39393L9.72739 13.6366C7.97003 15.3939 5.12079 15.3939 3.36343 13.6366C1.61767 11.8908 1.60615 9.06754 3.32886 7.30756L3.32867 7.30737L3.36343 7.27261L8.54888 2.08716C9.78554 0.850503 11.7906 0.850503 13.0272 2.08716C14.2639 3.32382 14.2639 5.32885 13.0272 6.56551L11.613 7.97972L7.84177 11.751L7.80702 11.7857L7.80656 11.7853C7.08824 12.4667 5.95339 12.4553 5.24905 11.751C4.53309 11.035 4.53309 9.87419 5.24905 9.15823L10.4345 3.97278C10.6298 3.77752 10.9463 3.77752 11.1416 3.97278C11.3369 4.16804 11.3369 4.48463 11.1416 4.67989L5.95615 9.86534C5.63072 10.1908 5.63072 10.7184 5.95615 11.0438Z" fill="#92929D"/>
	</g>
</svg>
