<svg width="154" height="35" viewBox="0 0 154 35" fill="none" xmlns="http://www.w3.org/2000/svg">
  <path fill-rule="evenodd" clip-rule="evenodd" d="M20.6802 16.7199V15.1099L19.4602 15.8599C19.3902 15.8999 19.3102 15.9399 19.2302 15.9499V17.5999L20.6802 16.7199ZM22.1002 17.5999V19.4199L23.4402 18.5999V16.7899L22.1002 17.5999ZM22.1002 14.2399V15.8499L23.4402 15.0299V13.4199L22.1002 14.2399ZM22.6102 12.1799L21.2502 11.3499L19.9002 12.1799L21.2402 13.0099L21.2502 13.0199L22.6102 12.1799ZM17.1202 13.8899L18.4402 14.6999C18.4702 14.7199 18.5002 14.7399 18.5202 14.7599C18.5802 14.6799 18.6602 14.6099 18.7502 14.5599L19.8302 13.8999L18.4802 13.0699L17.1202 13.8899ZM19.2602 19.3399C19.2502 19.3599 19.2402 19.3799 19.2302 19.3999V21.1799L20.6802 20.2899V18.4699L19.2602 19.3399ZM16.4802 16.8499V15.2399L17.7302 16.0099C17.7602 16.0299 17.7802 16.0399 17.8102 16.0499V17.6599L16.4802 16.8499ZM16.4802 20.4099V18.5899L17.8102 19.3999V21.2199L16.4802 20.4099ZM13.6802 15.1399V13.5299L15.0602 14.3799V15.9899L13.6802 15.1399ZM13.6802 18.6999V16.8799L15.0602 17.7199V19.5399L13.6802 18.6999ZM17.1302 10.4799L18.4802 9.64988L19.8302 10.4799L18.4802 11.3099L17.1302 10.4799ZM14.3402 12.1799L15.7002 11.3499L17.0502 12.1799L15.9402 12.8599C15.8602 12.9099 15.7902 12.9699 15.7402 13.0399L14.3402 12.1799ZM31.1602 0.999877C31.3502 1.35988 31.2102 1.83988 30.8502 2.05988L19.9002 8.77988L21.2502 9.59988L31.6102 3.22988C31.9702 3.00988 32.4302 3.11988 32.6302 3.47988C32.8202 3.83988 32.6802 4.31988 32.3202 4.53988L22.6802 10.4699L24.0402 11.2999L32.9202 5.84988C33.2902 5.62988 33.7402 5.73988 33.9402 6.09988C34.1302 6.45988 34.0002 6.93988 33.6302 7.15988L24.7702 12.5999C24.8402 12.7299 24.8802 12.8799 24.8802 13.0399V14.1499L34.2902 8.39988C34.6602 8.17988 35.1102 8.28988 35.3102 8.64988C35.5102 9.00988 35.3702 9.48988 35.0002 9.70988L24.8802 15.8999V17.7099L35.6802 11.0899C36.0402 10.8699 36.5002 10.9799 36.7002 11.3399C36.9002 11.6999 36.7502 12.1799 36.3902 12.3999L24.8902 19.4499V33.9699C24.8902 34.4199 24.5702 34.7899 24.1802 34.7899C23.7902 34.7899 23.4702 34.4199 23.4702 33.9699V20.3399L22.1302 21.1599V33.9899C22.1302 34.4399 21.8102 34.8099 21.4202 34.8099C21.0302 34.8099 20.7102 34.4399 20.7102 33.9899V22.0299L19.3702 22.8499C19.3302 22.8699 19.3002 22.8899 19.2602 22.8999V33.9799C19.2602 34.4299 18.9402 34.7999 18.5502 34.7999C18.1602 34.7999 17.8402 34.4299 17.8402 33.9799V22.9799L16.5102 22.1599V33.9899C16.5102 34.4399 16.1902 34.8099 15.8002 34.8099C15.4102 34.8099 15.0902 34.4399 15.0902 33.9899V21.2899L13.7102 20.4399V33.9899C13.7102 34.4399 13.3902 34.8099 13.0002 34.8099C12.6102 34.8099 12.2902 34.4399 12.2902 33.9899V19.5699L0.820172 12.5599C0.460172 12.3399 0.320172 11.8599 0.510172 11.4999C0.710172 11.1399 1.16017 11.0299 1.53017 11.2499L12.2602 17.8199V16.0099L2.21017 9.86988C1.84017 9.64988 1.71017 9.16988 1.90017 8.80988C2.09017 8.44988 2.55017 8.33988 2.92017 8.55988L12.2602 14.2699V13.0499C12.2602 12.9199 12.2902 12.7999 12.3302 12.6899L3.57017 7.31988C3.20017 7.08988 3.07017 6.61988 3.26017 6.25988C3.46017 5.89988 3.91017 5.78988 4.28017 6.00988L12.9502 11.3299C13.0002 11.2799 13.0602 11.2299 13.1202 11.1899L14.2802 10.4799L4.87017 4.68988C4.51017 4.46988 4.36017 3.98988 4.56017 3.62988C4.75017 3.26988 5.21017 3.15988 5.58017 3.37988L15.7002 9.59988L17.0502 8.76988L6.34017 2.20988C5.98017 1.98988 5.84017 1.50988 6.03017 1.13988C6.23017 0.779877 6.68017 0.669877 7.05017 0.889877L18.4802 7.89988L30.1502 0.749877C30.5102 0.529877 30.9702 0.639877 31.1602 0.999877Z" fill="white"/>
  <path d="M57.8301 16H55.7207V10.208H49.7969V16H47.6963V3.15039H49.7969V8.40625H55.7207V3.15039H57.8301V16ZM69.1855 16L67.9023 12.4316H62.9893L61.7324 16H59.5176L64.3252 3.09766H66.6104L71.418 16H69.1855ZM67.3486 10.6211L66.1445 7.12305C66.0566 6.88867 65.9336 6.51953 65.7754 6.01562C65.623 5.51172 65.5176 5.14258 65.459 4.9082C65.3008 5.62891 65.0693 6.41699 64.7646 7.27246L63.6045 10.6211H67.3486ZM73.1143 3.15039H76.9287C78.6982 3.15039 79.9756 3.4082 80.7607 3.92383C81.5518 4.43945 81.9473 5.25391 81.9473 6.36719C81.9473 7.11719 81.7539 7.74121 81.3672 8.23926C80.9805 8.7373 80.4238 9.05078 79.6973 9.17969V9.26758C80.5996 9.4375 81.2617 9.77441 81.6836 10.2783C82.1113 10.7764 82.3252 11.4531 82.3252 12.3086C82.3252 13.4629 81.9209 14.3682 81.1123 15.0244C80.3096 15.6748 79.1904 16 77.7549 16H73.1143V3.15039ZM75.2148 8.45898H77.2363C78.1152 8.45898 78.7568 8.32129 79.1611 8.0459C79.5654 7.76465 79.7676 7.29004 79.7676 6.62207C79.7676 6.01855 79.5479 5.58203 79.1084 5.3125C78.6748 5.04297 77.9834 4.9082 77.0342 4.9082H75.2148V8.45898ZM75.2148 10.1641V14.2334H77.4473C78.3262 14.2334 78.9883 14.0664 79.4336 13.7324C79.8848 13.3926 80.1104 12.8594 80.1104 12.1328C80.1104 11.4648 79.8818 10.9697 79.4248 10.6475C78.9678 10.3252 78.2734 10.1641 77.3418 10.1641H75.2148ZM84.9971 3.15039H86.9219V9.83008C86.9219 10.5273 86.9043 11.2334 86.8691 11.9482C86.834 12.6572 86.8076 13.1377 86.79 13.3896H86.8691L93.4346 3.15039H95.8867V16H93.9531V9.37305C93.9531 8.35938 94.0088 7.12891 94.1201 5.68164H94.0498L87.458 16H84.9971V3.15039ZM106.882 3.15039V4.95215H101.354V16H99.2529V3.15039H106.882ZM116.945 16L115.662 12.4316H110.749L109.492 16H107.277L112.085 3.09766H114.37L119.178 16H116.945ZM115.108 10.6211L113.904 7.12305C113.816 6.88867 113.693 6.51953 113.535 6.01562C113.383 5.51172 113.277 5.14258 113.219 4.9082C113.061 5.62891 112.829 6.41699 112.524 7.27246L111.364 10.6211H115.108ZM125.312 16H123.212V4.95215H119.433V3.15039H129.092V4.95215H125.312V16ZM142.478 9.55762C142.478 11.6494 141.953 13.2754 140.904 14.4355C139.861 15.5957 138.382 16.1758 136.466 16.1758C134.526 16.1758 133.035 15.6016 131.992 14.4531C130.955 13.2988 130.437 11.6611 130.437 9.54004C130.437 7.41895 130.958 5.79004 132.001 4.65332C133.05 3.5166 134.544 2.94824 136.483 2.94824C138.394 2.94824 139.87 3.52539 140.913 4.67969C141.956 5.83398 142.478 7.45996 142.478 9.55762ZM132.669 9.55762C132.669 11.1396 132.988 12.3408 133.627 13.1611C134.266 13.9756 135.212 14.3828 136.466 14.3828C137.714 14.3828 138.654 13.9785 139.287 13.1699C139.926 12.3613 140.245 11.1572 140.245 9.55762C140.245 7.98145 139.929 6.78613 139.296 5.97168C138.669 5.15723 137.731 4.75 136.483 4.75C135.224 4.75 134.271 5.15723 133.627 5.97168C132.988 6.78613 132.669 7.98145 132.669 9.55762ZM153.745 7.03516C153.745 8.37695 153.306 9.40527 152.427 10.1201C151.548 10.835 150.297 11.1924 148.674 11.1924H147.338V16H145.237V3.15039H148.938C150.543 3.15039 151.744 3.47852 152.541 4.13477C153.344 4.79102 153.745 5.75781 153.745 7.03516ZM147.338 9.42578H148.454C149.532 9.42578 150.323 9.23828 150.827 8.86328C151.331 8.48828 151.583 7.90234 151.583 7.10547C151.583 6.36719 151.357 5.81641 150.906 5.45312C150.455 5.08984 149.752 4.9082 148.797 4.9082H147.338V9.42578Z" fill="white"/>
  <path opacity="0.5" d="M47.1895 23.4336H48.1211V28.1973C48.1211 29.0762 48.0938 29.8711 48.0391 30.582H48.0859L52.8906 23.4336H53.9805V32H53.043V27.2832C53.043 26.498 53.0762 25.6738 53.1426 24.8105H53.0898L48.2793 32H47.1895V23.4336ZM62.834 32H61.8379V27.9688H57.3262V32H56.3301V23.4336H57.3262V27.0781H61.8379V23.4336H62.834V32ZM71.582 31.0977H72.5898V34.2324H71.6465V32H65.1895V23.4336H66.1855V31.0977H70.5859V23.4336H71.582V31.0977ZM74.0488 23.4336H74.9805V28.1973C74.9805 29.0762 74.9531 29.8711 74.8984 30.582H74.9453L79.75 23.4336H80.8398V32H79.9023V27.2832C79.9023 26.498 79.9355 25.6738 80.002 24.8105H79.9492L75.1387 32H74.0488V23.4336ZM89.9453 34.2324H88.9961V32H83.043V34.2324H82.0938V31.0977H82.7559C83.3574 30.0859 83.8711 28.8555 84.2969 27.4062C84.7266 25.957 84.9648 24.6328 85.0117 23.4336H88.8613V31.0977H89.9453V34.2324ZM87.8652 31.0977V24.3301H85.9141C85.8438 25.2754 85.6074 26.4121 85.2051 27.7402C84.8027 29.0645 84.334 30.1836 83.7988 31.0977H87.8652ZM96.168 32H91.3926V23.4336H96.168V24.3184H92.3887V27.0781H95.9395V27.957H92.3887V31.1094H96.168V32ZM104.576 32H103.58V27.9688H99.0684V32H98.0723V23.4336H99.0684V27.0781H103.58V23.4336H104.576V32ZM109.568 32H108.572V24.3184H105.859V23.4336H112.281V24.3184H109.568V32ZM113.576 32V23.4336H114.572V27.0898H115.973C116.992 27.0898 117.77 27.291 118.305 27.6934C118.84 28.0918 119.107 28.6953 119.107 29.5039C119.107 30.3086 118.854 30.9258 118.346 31.3555C117.842 31.7852 117.104 32 116.131 32H113.576ZM114.572 31.1504H116.02C116.727 31.1504 117.246 31.0137 117.578 30.7402C117.91 30.4629 118.076 30.0508 118.076 29.5039C118.076 28.9688 117.9 28.582 117.549 28.3438C117.201 28.1016 116.637 27.9805 115.855 27.9805H114.572V31.1504ZM121.457 32H120.461V23.4336H121.457V32Z" fill="white"/>
</svg>
