<svg width="24" height="24" viewBox="0 0 14 14" fill="none" xmlns="http://www.w3.org/2000/svg">
    <path fill-rule="evenodd"
          clip-rule="evenodd"
          d="M3.0625 3.0625C2.82088 3.0625 2.625 3.25838 2.625 3.5V4.8125H11.375V3.5C11.375 3.25838 11.1791 3.0625 10.9375 3.0625H3.0625ZM8.53125 3.9375C8.41044 3.9375 8.3125 4.03544 8.3125 4.15625C8.3125 4.27706 8.41044 4.375 8.53125 4.375H8.96875C9.08956 4.375 9.1875 4.27706 9.1875 4.15625C9.1875 4.03544 9.08956 3.9375 8.96875 3.9375H8.53125ZM9.625 4.15625C9.625 4.03544 9.72294 3.9375 9.84375 3.9375H10.2812C10.4021 3.9375 10.5 4.03544 10.5 4.15625C10.5 4.27706 10.4021 4.375 10.2812 4.375H9.84375C9.72294 4.375 9.625 4.27706 9.625 4.15625Z
          M10.5 5.25
          H3.5
          V6
          H4.4
          V8
          H3.5
          V7.875
          C3.5 9.808 5.067 11.375 7 11.375
          C8.933 11.375 10.5 9.808 10.5 7.875
          V8
          H9.6
          V6
          H10.5
          V5.25
          Z
          M7 10.5C7.9665 10.5 8.75 9.7165 8.75 8.75C8.75 7.7835 7.9665 7 7 7C6.0335 7 5.25 7.7835 5.25 8.75C5.25 9.7165 6.0335 10.5 7 10.5ZM7 9.84375C7.60406 9.84375 8.09375 9.35406 8.09375 8.75C8.09375 8.14594 7.60406 7.65625 7 7.65625C6.39594 7.65625 5.90625 8.14594 5.90625 8.75C5.90625 9.35406 6.39594 9.84375 7 9.84375ZM7 9.1875C7.24162 9.1875 7.4375 8.99162 7.4375 8.75C7.4375 8.50838 7.24162 8.3125 7 8.3125C6.75838 8.3125 6.5625 8.50838 6.5625 8.75C6.5625 8.99162 6.75838 9.1875 7 9.1875Z"
          fill="#ffffff" class="svg-f"
    />

    <circle cx="3.5" cy="7" r="1.1" stroke="#ffffff" class="svg-s" stroke-width="0.5" fill="transparent"/>
    <circle cx="3.5" cy="7" r="0.34" fill="#ffffff" class="svg-f"/>

    <circle cx="10.5" cy="7" r="1.1" stroke="#ffffff" class="svg-s" stroke-width="0.5" fill="transparent"/>
    <circle cx="10.5" cy="7" r="0.34" fill="#ffffff" class="svg-f"/>
</svg>
