<svg width="24" height="24" viewBox="0 0 14 14" fill="none" xmlns="http://www.w3.org/2000/svg">
    <path fill="#ffffff" class="svg-f" fill-rule="evenodd" clip-rule="evenodd" d="M3.0625 3.28125C2.82088 3.28125 2.625 3.47713 2.625 3.71875V5.03125H11.375V3.71875C11.375 3.47713 11.1791 3.28125 10.9375 3.28125H3.0625ZM8.53125 4.15625C8.41044 4.15625 8.3125 4.25419 8.3125 4.375C8.3125 4.49581 8.41044 4.59375 8.53125 4.59375H8.96875C9.08956 4.59375 9.1875 4.49581 9.1875 4.375C9.1875 4.25419 9.08956 4.15625 8.96875 4.15625H8.53125ZM9.625 4.375C9.625 4.25419 9.72294 4.15625 9.84375 4.15625H10.2812C10.4021 4.15625 10.5 4.25419 10.5 4.375C10.5 4.49581 10.4021 4.59375 10.2812 4.59375H9.84375C9.72294 4.59375 9.625 4.49581 9.625 4.375ZM10.5 5.46875H3.5V7.21875C3.5 9.15175 5.067 10.7188 7 10.7188C8.933 10.7188 10.5 9.15175 10.5 7.21875V5.46875ZM7 9.84375C7.9665 9.84375 8.75 9.06025 8.75 8.09375C8.75 7.12725 7.9665 6.34375 7 6.34375C6.0335 6.34375 5.25 7.12725 5.25 8.09375C5.25 9.06025 6.0335 9.84375 7 9.84375ZM7 9.1875C7.60406 9.1875 8.09375 8.69781 8.09375 8.09375C8.09375 7.48969 7.60406 7 7 7C6.39594 7 5.90625 7.48969 5.90625 8.09375C5.90625 8.69781 6.39594 9.1875 7 9.1875ZM7 8.53125C7.24162 8.53125 7.4375 8.33537 7.4375 8.09375C7.4375 7.85213 7.24162 7.65625 7 7.65625C6.75838 7.65625 6.5625 7.85213 6.5625 8.09375C6.5625 8.33537 6.75838 8.53125 7 8.53125Z"/>
</svg>
