<svg width="24" height="24" viewBox="0 0 14 14" fill="none" xmlns="http://www.w3.org/2000/svg">
    <path fill="#ffffff" class="svg-f" fill-rule="evenodd" clip-rule="evenodd" d="M3.82564 3.05545C3.8676 2.8175 4.09451 2.65861 4.33246 2.70057L11.3697 3.94143C11.5284 3.9694 11.6343 4.12068 11.6063 4.27931C11.5504 4.59658 11.2478 4.80843 10.9306 4.75249L3.74967 3.4863L3.82564 3.05545ZM11.4294 5.28439L10.1368 5.05648L9.83296 6.77989L10.6947 6.93184C10.9326 6.97379 11.1595 6.81491 11.2015 6.57695L11.4294 5.28439ZM3.67346 3.91744L9.70541 4.98104L9.32555 7.1353C9.2836 7.37326 9.05668 7.53215 8.81873 7.49019L6.8799 7.14832L5.76577 9.74796C5.62788 10.0697 5.31154 10.2783 4.96151 10.2783H3.9375V10.7158C3.9375 10.9574 3.74162 11.1533 3.5 11.1533H3.0625L3.0625 11.372C3.0625 11.4928 2.96456 11.5908 2.84375 11.5908C2.72294 11.5908 2.625 11.4928 2.625 11.372L2.625 8.30953C2.625 8.18872 2.72294 8.09078 2.84375 8.09078C2.96456 8.09078 3.0625 8.18872 3.0625 8.30953L3.0625 8.52828H3.5C3.74162 8.52828 3.9375 8.72416 3.9375 8.96578L3.9375 9.40328H4.96151L5.99481 6.99225L3.64849 6.57853C3.41054 6.53658 3.25165 6.30966 3.29361 6.07171L3.67346 3.91744ZM8.96867 5.68747C9.08948 5.68747 9.18742 5.58953 9.18742 5.46872C9.18742 5.34791 9.08948 5.24997 8.96867 5.24997C8.84786 5.24997 8.74992 5.34791 8.74992 5.46872C8.74992 5.58953 8.84786 5.68747 8.96867 5.68747Z"/>
</svg>
