<svg width="22" height="18" viewBox="0 0 22 18" xmlns="http://www.w3.org/2000/svg">
  <path fill-rule="evenodd" clip-rule="evenodd" fill="currentColor" d="M18 2C19.1046 2 20 2.89543 20 4V5C21.1046 5 22 5.89543 22 7L21.9762 7.21693L19.996 16.1279C19.93 17.1729 19.0616 18 18 18H2C0.89543 18 0 17.1046 0 16V2C0 0.89543 0.89543 0 2 0H8C9.12 0 9.83294 0.475451 10.549 1.37885C10.5688 1.40385 10.6171 1.46608 10.6706 1.535L10.6707 1.53515C10.7461 1.63236 10.8318 1.74283 10.8625 1.78082C10.8935 1.81925 10.9196 1.85103 10.9412 1.8773L10.9412 1.87732C11.0292 1.98428 11.0419 1.99978 11.0018 2H18ZM18 4V5H4C2.8334 5 2.3102 5.62146 2.02913 6.76041L2 6.89146V2H8C8.38424 2 8.60702 2.14857 8.9816 2.62116C8.99336 2.636 9.02706 2.67944 9.06905 2.73357L9.06919 2.73375L9.0692 2.73376C9.14958 2.83737 9.26027 2.98006 9.30583 3.03654C9.80869 3.65991 10.2765 3.99614 10.9946 3.99999L18 4ZM18 16H2.02439L3.97619 7.21693C3.99992 7.12129 4.02068 7.04955 4.03631 7H19.9756L18.0238 15.7831L18 16Z"/>
</svg>
