<svg width="18" height="20" viewBox="0 0 18 20" fill="none" xmlns="http://www.w3.org/2000/svg">
  <path fill-rule="evenodd" clip-rule="evenodd" fill="currentColor" d="M18 20H3C1.34315 20 0 18.6569 0 17V3C0 1.34315 1.34315 0 3 0H18V16C17.4477 16 17 16.4477 17 17C17 17.5523 17.4477 18 18 18V20ZM15 17C15 16.6494 15.0602 16.3128 15.1707 16H3C2.44772 16 2 16.4477 2 17C2 17.5523 2.44772 18 3 18H15.1707C15.0602 17.6872 15 17.3506 15 17ZM3 2H16V14H3C2.64936 14 2.31278 14.0602 2 14.1707V3C2 2.44772 2.44772 2 3 2Z"/>
</svg>
