<svg width="24" height="24" viewBox="0 0 24 24" fill="none" xmlns="http://www.w3.org/2000/svg">
    <rect x="1" y="1" width="22" height="22" rx="4" fill="#FC5A5A"/>
    <g transform="translate(3.9, 4.6), scale(1.35)">
        <path fill-rule="evenodd" clip-rule="evenodd" d="M6.00268 0.233156C5.25815 0.232284 4.56953 0.62802 4.19558 1.27169L0.691914 7.26115C0.310322 7.90302 0.301958 8.70663 0.671305 9.36186C1.04112 10.0179 1.73355 10.4262 2.48671 10.4323L2.48753 10.4323L9.50646 10.4323L9.50744 10.4323C10.2677 10.4249 10.9589 10.0182 11.3288 9.36245C11.6981 8.70781 11.6898 7.90576 11.3072 7.25883L7.80489 1.27171C7.43526 0.631162 6.74686 0.234027 6.00268 0.233156ZM5.2324 1.87584C5.3921 1.60094 5.68484 1.43278 6.00127 1.43315C6.31793 1.43353 6.61074 1.60312 6.76743 1.87476L10.2731 7.86769C10.4387 8.14766 10.4421 8.49192 10.2836 8.77286C10.1251 9.05396 9.82857 9.229 9.50105 9.23235L2.49203 9.23231C2.17289 9.22956 1.87551 9.0544 1.71666 8.7726C1.55793 8.49101 1.56184 8.146 1.72532 7.87111L1.72569 7.87049L5.2324 1.87584ZM6.60214 3.23233H5.40181V6.93233H6.60214V3.23233ZM6.0005 7.23233C5.66906 7.23233 5.40033 7.50093 5.40033 7.83233C5.40033 8.16373 5.66906 8.43233 6.0005 8.43233C6.33193 8.43233 6.60066 8.16373 6.60066 7.83233C6.60066 7.50093 6.33193 7.23233 6.0005 7.23233Z" fill="white"/>
    </g>
</svg>

