<svg xmlns="http://www.w3.org/2000/svg" width="33" height="31" viewBox="0 0 33 31">
    <defs>
        <filter id="prefix__a" width="125.8%" height="127.6%" x="-12.9%" y="-13.8%" filterUnits="objectBoundingBox">
            <feOffset dy="1" in="SourceAlpha" result="shadowOffsetOuter1"/>
            <feGaussianBlur in="shadowOffsetOuter1" result="shadowBlurOuter1" stdDeviation=".5"/>
            <feColorMatrix in="shadowBlurOuter1" result="shadowMatrixOuter1" values="0 0 0 0 0 0 0 0 0 0 0 0 0 0 0 0 0 0 0.79649257 0"/>
            <feMerge>
                <feMergeNode in="shadowMatrixOuter1"/>
                <feMergeNode in="SourceGraphic"/>
            </feMerge>
        </filter>
    </defs>
    <g fill="#FFF" filter="url(#prefix__a)" transform="translate(1)">
        <path d="M26.12 14.992c.007-.132-.064-.254-.18-.317-.118-.063-.262-.056-.37.021-4.895 3.466-8.6 4.09-10.735 4.014-.14-.001-.281.082-.335.216-.054.135-.018.29.09.385 1.711 1.506 3.948 2.845 6.649 3.982.044.018.09.027.136.027.07 0 .142-.021.203-.063 2.741-1.934 4.396-4.946 4.543-8.265z"/>
        <path d="M18.736 17.007c-.077.123-.067.28.022.394.067.084.17.13.272.13.038 0 .075-.006.111-.017 2.17-.713 4.457-1.96 6.798-3.703.097-.072.148-.19.137-.308-.32-3.313-2.128-6.24-4.96-8.024-.112-.07-.255-.071-.369-.003-.113.069-.177.195-.165.326.58 5.887-.683 9.343-1.846 11.205z"/>
        <path d="M10.305 5.631c5.441 2.445 7.833 5.256 8.881 7.185.062.113.18.182.308.182.016 0 .032-.002.05-.004.144-.021.26-.13.29-.271.462-2.216.514-4.8.159-7.68-.014-.118-.09-.221-.202-.27-1.41-.635-2.971-.972-4.514-.972-1.723 0-3.449.418-4.987 1.21-.117.063-.191.184-.188.316.004.131.082.25.203.304z"/>
        <path d="M4.466 14.057c-.006.132.064.255.181.317.052.028.11.041.166.041.07 0 .143-.021.203-.063 4.898-3.466 8.612-4.065 10.737-4.014.14.003.28-.084.333-.217.054-.135.016-.289-.092-.384-1.71-1.507-3.947-2.845-6.649-3.98-.11-.047-.239-.034-.337.037-2.74 1.932-4.396 4.944-4.542 8.263z"/>
        <path d="M11.851 12.043c.077-.124.068-.282-.022-.394-.09-.115-.243-.158-.383-.115-2.172.714-4.46 1.96-6.8 3.706-.096.071-.148.19-.136.306.32 3.315 2.128 6.24 4.96 8.024.057.038.122.055.188.055h.01c.192 0 .346-.154.346-.343 0-.04-.007-.076-.018-.113-.56-5.838.698-9.272 1.855-11.126z"/>
        <path d="M20.281 23.42c-5.44-2.445-7.832-5.258-8.881-7.188-.07-.127-.214-.195-.357-.178-.145.022-.261.132-.29.272-.462 2.217-.515 4.8-.16 7.679.015.12.09.223.201.272 1.411.635 2.972.971 4.515.971 1.725 0 3.448-.418 4.988-1.209.117-.063.192-.185.189-.317-.006-.132-.084-.249-.205-.302zM.697 8.544c.383 0 .695-.309.695-.689V1.897c0-.11.09-.2.203-.2h6.02c.384 0 .696-.308.696-.688 0-.38-.312-.688-.696-.688h-6.02C.715.32.001 1.028.001 1.898v5.958c0 .378.312.688.696.688zM28.992.32H22.97c-.384 0-.696.308-.696.688 0 .38.312.688.696.688h6.022c.111 0 .202.09.202.201v5.958c0 .38.311.688.695.688.384 0 .696-.309.696-.688V1.897c0-.87-.715-1.577-1.593-1.577zM29.889 20.506c-.384 0-.695.309-.695.689v5.957c0 .112-.09.2-.202.2h-6.02c-.384 0-.697.31-.697.69 0 .38.313.689.696.689h6.02c.879 0 1.594-.709 1.594-1.58v-5.957c0-.379-.312-.688-.696-.688zM7.615 27.352H1.594c-.112 0-.202-.09-.202-.201v-5.956c0-.38-.312-.689-.695-.689-.384 0-.697.309-.697.689v5.957c0 .871.715 1.579 1.594 1.579h6.021c.384 0 .696-.309.696-.689 0-.38-.312-.69-.696-.69z"/>
    </g>
</svg>
