<svg width="32" height="32" viewBox="0 0 32 32" xmlns="http://www.w3.org/2000/svg">
    <path fill="currentColor" d="M21.4998 10.5H19.6665C19.6665 8.47418 18.0257 6.83334 15.9998 6.83334C13.974 6.83334 12.3332 8.47418 12.3332 10.5H10.4998C9.4915 10.5 8.6665 11.325 8.6665 12.3333V23.3333C8.6665 24.3417 9.4915 25.1667 10.4998 25.1667H21.4998C22.5082 25.1667 23.3332 24.3417 23.3332 23.3333V12.3333C23.3332 11.325 22.5082 10.5 21.4998 10.5ZM15.9998 8.66668C17.0082 8.66668 17.8332 9.49168 17.8332 10.5H14.1665C14.1665 9.49168 14.9915 8.66668 15.9998 8.66668ZM21.4998 23.3333H10.4998V12.3333H12.3332V14.1667C12.3332 14.6708 12.7457 15.0833 13.2498 15.0833C13.754 15.0833 14.1665 14.6708 14.1665 14.1667V12.3333H17.8332V14.1667C17.8332 14.6708 18.2457 15.0833 18.7498 15.0833C19.254 15.0833 19.6665 14.6708 19.6665 14.1667V12.3333H21.4998V23.3333Z"/>
</svg>
