<svg width="24" height="24" viewBox="0 0 24 24" fill="none" xmlns="http://www.w3.org/2000/svg">
    <rect x="2" y="2" width="20" height="20" rx="3" stroke="#3DD598" stroke-width="2"/>
    <path d="M15.6902 13.3662C15.6617 13.9847 15.4949 14.532 15.1897 15.0081C14.8845 15.4801 14.4552 15.8463 13.9019 16.1067C13.3525 16.3671 12.7239 16.4973 12.0159 16.4973C10.8481 16.4973 9.92847 16.1169 9.25708 15.356C8.58569 14.5951 8.25 13.5208 8.25 12.1333V11.6938C8.25 10.8231 8.40055 10.0622 8.70166 9.41113C9.00684 8.75602 9.44425 8.25146 10.0139 7.89746C10.5836 7.53939 11.2428 7.36035 11.9915 7.36035C13.0697 7.36035 13.9364 7.64518 14.5916 8.21484C15.2467 8.78044 15.619 9.56169 15.7085 10.5586H13.5723C13.556 10.0174 13.4197 9.62882 13.1633 9.39282C12.907 9.15682 12.5164 9.03882 11.9915 9.03882C11.4584 9.03882 11.0678 9.2382 10.8196 9.63696C10.5714 10.0357 10.4412 10.6725 10.429 11.5474V12.176C10.429 13.1241 10.547 13.8016 10.783 14.2085C11.023 14.6154 11.434 14.8188 12.0159 14.8188C12.5082 14.8188 12.8846 14.7029 13.145 14.4709C13.4054 14.239 13.5438 13.8708 13.5601 13.3662H15.6902Z" fill="#3DD598"/>
</svg>
