<svg width="24" height="24" viewBox="0 0 24 24" fill="none" xmlns="http://www.w3.org/2000/svg">
    <rect x="2" y="2" width="20" height="20" rx="3" stroke="#FF974A" stroke-width="2"/>
    <path d="M8.25 16.375V7.48828H11.4421C12.5855 7.48828 13.4543 7.69784 14.0483 8.11694C14.6465 8.53605 14.9456 9.14437 14.9456 9.94189C14.9456 10.4017 14.8398 10.7944 14.6282 11.1199C14.4166 11.4454 14.1053 11.6855 13.6943 11.8401C14.1582 11.9622 14.5142 12.19 14.7625 12.5237C15.0107 12.8573 15.1348 13.2642 15.1348 13.7444C15.1348 14.6152 14.8581 15.2703 14.3047 15.7097C13.7554 16.1451 12.9395 16.3669 11.8572 16.375H8.25ZM10.3923 12.5969V14.7271H11.7961C12.1827 14.7271 12.4797 14.6396 12.6873 14.4646C12.8948 14.2856 12.9985 14.0353 12.9985 13.7139C12.9985 12.9733 12.6303 12.601 11.8938 12.5969H10.3923ZM10.3923 11.1931H11.5093C11.9772 11.189 12.3109 11.1036 12.5103 10.9368C12.7096 10.7699 12.8093 10.5238 12.8093 10.1982C12.8093 9.82389 12.7015 9.55534 12.4858 9.39258C12.2702 9.22575 11.9223 9.14233 11.4421 9.14233H10.3923V11.1931Z" fill="#FF974A"/>
</svg>
